<svg width="65" height="74" viewBox="0 0 65 74" fill="none" xmlns="http://www.w3.org/2000/svg">
    <path d="M29.2499 50.6667C28.9138 50.6667 28.5778 50.7177 28.2571 50.8256C26.4346 51.4396 24.5179 51.8333 22.5 51.8333C20.4821 51.8333 18.5654 51.4396 16.7415 50.8256C16.4208 50.7177 16.0862 50.6667 15.7501 50.6667C7.02297 50.6667 -0.0461786 58.0283 0.000227174 67.0904C0.0199145 70.92 3.05598 74 6.75016 74H38.2498C41.944 74 44.9801 70.92 44.9998 67.0904C45.0462 58.0283 37.977 50.6667 29.2499 50.6667ZM22.5 46C29.9559 46 35.9999 39.7321 35.9999 32C35.9999 24.2679 29.9559 18 22.5 18C15.0441 18 9.00014 24.2679 9.00014 32C9.00014 39.7321 15.0441 46 22.5 46Z" fill="#00726D"/>
    <path d="M43.5068 10.7335C43.5068 11.1402 43.2963 11.5302 42.9217 11.8178C42.547 12.1053 42.0389 12.2669 41.509 12.2669C40.9792 12.2669 40.471 12.1053 40.0964 11.8178C39.7217 11.5302 39.5112 11.1402 39.5112 10.7335C39.5112 10.3269 39.7217 9.93685 40.0964 9.6493C40.471 9.36174 40.9792 9.2002 41.509 9.2002C42.0389 9.2002 42.547 9.36174 42.9217 9.6493C43.2963 9.93685 43.5068 10.3269 43.5068 10.7335ZM51.4979 10.7335C51.4979 11.1402 51.2874 11.5302 50.9128 11.8178C50.5381 12.1053 50.03 12.2669 49.5001 12.2669C48.9703 12.2669 48.4621 12.1053 48.0875 11.8178C47.7128 11.5302 47.5023 11.1402 47.5023 10.7335C47.5023 10.3269 47.7128 9.93685 48.0875 9.6493C48.4621 9.36174 48.9703 9.2002 49.5001 9.2002C50.03 9.2002 50.5381 9.36174 50.9128 9.6493C51.2874 9.93685 51.4979 10.3269 51.4979 10.7335ZM57.4912 12.2669C58.0211 12.2669 58.5292 12.1053 58.9039 11.8178C59.2785 11.5302 59.489 11.1402 59.489 10.7335C59.489 10.3269 59.2785 9.93685 58.9039 9.6493C58.5292 9.36174 58.0211 9.2002 57.4912 9.2002C56.9614 9.2002 56.4532 9.36174 56.0786 9.6493C55.7039 9.93685 55.4935 10.3269 55.4935 10.7335C55.4935 11.1402 55.7039 11.5302 56.0786 11.8178C56.4532 12.1053 56.9614 12.2669 57.4912 12.2669Z" fill="#00726D"/>
    <path d="M38.1947 22.8024L38.2334 22.7962C41.7791 22.2371 43.9452 21.4992 44.9527 21.0941C46.436 21.4086 47.9648 21.5671 49.5 21.5655C58.0599 21.5655 65 16.7379 65 10.7827C65 4.82758 58.0599 0 49.5 0C40.9401 0 34 4.82758 34 10.7827C34 13.4938 35.4396 15.9738 37.8169 17.8685C37.6506 19.0856 37.3099 20.2836 36.8016 21.4391L36.7958 21.4561C36.6514 21.7871 36.4937 22.1143 36.3231 22.4373C36.17 22.7238 36.4664 23.0442 36.852 22.9949C37.3008 22.9365 37.7485 22.8724 38.1947 22.8024ZM39.7447 18.0149C39.7718 17.7893 39.7361 17.5618 39.6399 17.3486C39.5438 17.1353 39.3897 16.9415 39.1886 16.781C37.1349 15.142 35.9375 13.044 35.9375 10.7827C35.9375 5.86581 41.7578 1.54039 49.5 1.54039C57.2423 1.54039 63.0625 5.86581 63.0625 10.7827C63.0625 15.7012 57.2423 20.0251 49.5 20.0251C48.1343 20.0267 46.7742 19.8858 45.4545 19.6061C44.9933 19.5078 44.5028 19.5484 44.0769 19.7201C43.3271 20.022 41.6744 20.5981 38.9736 21.0956C39.3504 20.09 39.6085 19.0586 39.7447 18.0149Z" fill="#00726D"/>
</svg>
