<svg width="70" height="65" viewBox="0 0 70 65" fill="none" xmlns="http://www.w3.org/2000/svg">
    <path fill-rule="evenodd" clip-rule="evenodd" d="M21.151 23.0115C22.0595 20.3263 23.6404 17.885 25.761 15.8926L37.186 5.15957C40.7026 1.85595 45.4721 0 50.4453 0C55.4186 0 60.1881 1.85595 63.7047 5.15957C67.2213 8.46318 69.1969 12.9438 69.1969 17.6159C69.1969 22.2879 67.2213 26.7685 63.7047 30.0722L55.1297 38.1278C55.2985 35.5913 55.0297 33.0372 54.3297 30.5712L59.286 25.921C61.6315 23.7176 62.9492 20.7291 62.9492 17.6129C62.9492 14.4968 61.6315 11.5083 59.286 9.30481C56.9405 7.10137 53.7593 5.86348 50.4422 5.86348C47.1252 5.86348 43.944 7.10137 41.5985 9.30481L30.1797 20.0378C28.6283 21.4952 27.5124 23.3105 26.9444 25.3013C26.3763 27.2921 26.376 29.3883 26.9435 31.3793C27.511 33.3702 28.6264 35.1858 30.1774 36.6435C31.7285 38.1012 33.6606 39.1498 35.7797 39.6837L30.936 44.24C28.2299 43.0252 25.8735 41.2183 24.0645 38.9709C22.2556 36.7235 21.0469 34.1013 20.54 31.3243C20.033 28.5473 20.2426 25.6966 21.151 23.0115ZM5.49221 34.9275L14.0672 26.8718C13.8978 29.4147 14.1679 31.9608 14.8672 34.4225L9.91096 39.0727C7.56545 41.2762 6.24776 44.2647 6.24776 47.3808C6.24776 50.497 7.56545 53.4855 9.91096 55.6889C12.2565 57.8924 15.4377 59.1303 18.7547 59.1303C22.0718 59.1303 25.253 57.8924 27.5985 55.6889L39.0172 44.9559C40.5562 43.5114 41.6673 41.7146 42.2405 39.7432C42.8138 37.7717 42.8295 35.6938 42.286 33.7149C41.7425 31.736 40.6586 29.9246 39.1415 28.4598C37.6245 26.995 35.7268 25.9275 33.636 25.3629C33.9033 24.9369 34.2266 24.5444 34.5985 24.1944L38.261 20.7538C40.9671 21.9686 43.3235 23.7755 45.1324 26.0228C46.9413 28.2702 48.15 30.8924 48.657 33.6694C49.1639 36.4464 48.9544 39.2971 48.0459 41.9823C47.1374 44.6675 45.5566 47.1087 43.436 49.1012L32.011 59.84C28.4944 63.1437 23.7248 64.9996 18.7516 64.9996C13.7784 64.9996 9.00882 63.1437 5.49221 59.84C1.97561 56.5364 0 52.0558 0 47.3837C0 42.7117 1.97561 38.2311 5.49221 34.9275Z" fill="#00726D"/>
</svg>
