<svg width="22" height="20" viewBox="0 0 22 20" fill="none" xmlns="http://www.w3.org/2000/svg">
    <path d="M0.785714 3.53571H21.2143C21.6482 3.53571 22 3.18396 22 2.75V0.785714C22 0.351754 21.6482 0 21.2143 0H0.785714C0.351754 0 0 0.351754 0 0.785714V2.75C0 3.18396 0.351754 3.53571 0.785714 3.53571ZM0.785714 11.3929H21.2143C21.6482 11.3929 22 11.0411 22 10.6071V8.64286C22 8.2089 21.6482 7.85714 21.2143 7.85714H0.785714C0.351754 7.85714 0 8.2089 0 8.64286V10.6071C0 11.0411 0.351754 11.3929 0.785714 11.3929ZM0.785714 19.25H21.2143C21.6482 19.25 22 18.8982 22 18.4643V16.5C22 16.066 21.6482 15.7143 21.2143 15.7143H0.785714C0.351754 15.7143 0 16.066 0 16.5V18.4643C0 18.8982 0.351754 19.25 0.785714 19.25Z" fill="#00726D"/>
</svg>
