<svg width="70" height="65" viewBox="0 0 70 65" fill="none" xmlns="http://www.w3.org/2000/svg">
    <path d="M39.288 2.63417C38.855 1.83365 38.2306 1.16856 37.478 0.706057C36.7253 0.24355 35.871 0 35.0013 0C34.1315 0 33.2772 0.24355 32.5245 0.706057C31.7719 1.16856 31.1475 1.83365 30.7145 2.63417L0.720443 56.7969C-1.27858 60.4087 1.1185 65 5.00719 65H64.991C68.8797 65 71.2811 60.404 69.2777 56.7969L39.288 2.63417ZM34.9925 18.5761C37.3327 18.5761 39.1655 20.7209 38.9293 23.1953L37.3983 39.4762C37.3469 40.1157 37.0712 40.7116 36.6257 41.1457C36.1802 41.5799 35.5974 41.8208 34.9925 41.8208C34.3877 41.8208 33.8049 41.5799 33.3594 41.1457C32.9139 40.7116 32.6381 40.1157 32.5867 39.4762L31.0557 23.1953C31.0007 22.6114 31.0616 22.0218 31.2344 21.4645C31.4072 20.9071 31.688 20.3943 32.0589 19.9591C32.4298 19.524 32.8824 19.1761 33.3877 18.9379C33.893 18.6997 34.4396 18.5765 34.9925 18.5761ZM35.0013 46.4305C36.1614 46.4305 37.274 46.9196 38.0943 47.7902C38.9146 48.6608 39.3755 49.8416 39.3755 51.0728C39.3755 52.3041 38.9146 53.4849 38.0943 54.3555C37.274 55.2261 36.1614 55.7152 35.0013 55.7152C33.8411 55.7152 32.7285 55.2261 31.9082 54.3555C31.0879 53.4849 30.627 52.3041 30.627 51.0728C30.627 49.8416 31.0879 48.6608 31.9082 47.7902C32.7285 46.9196 33.8411 46.4305 35.0013 46.4305Z" fill="#00726D"/>
</svg>
