<svg width="70" height="65" viewBox="0 0 70 65" fill="none" xmlns="http://www.w3.org/2000/svg">
    <path d="M25.25 13.6471C25.25 15.1448 24.6442 16.5811 23.5659 17.6401C22.4875 18.6992 21.025 19.2941 19.5 19.2941C17.975 19.2941 16.5125 18.6992 15.4341 17.6401C14.3558 16.5811 13.75 15.1448 13.75 13.6471C13.75 12.1494 14.3558 10.713 15.4341 9.65399C16.5125 8.59496 17.975 8 19.5 8C21.025 8 22.4875 8.59496 23.5659 9.65399C24.6442 10.713 25.25 12.1494 25.25 13.6471ZM8 29.7412C8 32 10.3 32 10.3 32H28.7C28.7 32 31 32 31 29.7412C31 27.4824 28.7 20.7059 19.5 20.7059C10.3 20.7059 8 27.4824 8 29.7412Z" fill="#00726D"/>
    <path d="M8.75 0C6.42936 0 4.20376 0.767735 2.56282 2.13431C0.921872 3.50089 0 5.35436 0 7.287L0 36.435C0 38.3676 0.921872 40.2211 2.56282 41.5877C4.20376 42.9542 6.42936 43.722 8.75 43.722H31.6881C32.2219 42.5342 32.9787 41.2881 33.9894 40.0785H8.75C7.58968 40.0785 6.47688 39.6946 5.65641 39.0113C4.83594 38.328 4.375 37.4013 4.375 36.435V7.287C4.375 6.32068 4.83594 5.39394 5.65641 4.71065C6.47688 4.02736 7.58968 3.6435 8.75 3.6435H61.25C62.4103 3.6435 63.5231 4.02736 64.3436 4.71065C65.1641 5.39394 65.625 6.32068 65.625 7.287V35.7427C67.1694 36.5807 68.495 37.5499 69.6062 38.5956C69.8644 37.9142 70 37.1892 70 36.435V7.287C70 5.35436 69.0781 3.50089 67.4372 2.13431C65.7962 0.767735 63.5706 0 61.25 0H8.75Z" fill="#00726D"/>
    <path d="M39.8407 25.018C39.4304 25.3596 39.2 25.823 39.2 26.3061C39.2 26.7893 39.4304 27.2527 39.8407 27.5943C40.2509 27.9359 40.8073 28.1279 41.3875 28.1279H50.1375C50.7176 28.1279 51.274 27.9359 51.6842 27.5943C52.0945 27.2527 52.325 26.7893 52.325 26.3061C52.325 25.823 52.0945 25.3596 51.6842 25.018C51.274 24.6763 50.7176 24.4844 50.1375 24.4844H41.3875C40.8073 24.4844 40.2509 24.6763 39.8407 25.018Z" fill="#00726D"/>
    <path d="M39.8407 17.8764C39.4304 18.218 39.2 18.6814 39.2 19.1645C39.2 19.6477 39.4304 20.111 39.8407 20.4527C40.2509 20.7943 40.8073 20.9863 41.3875 20.9863H58.8875C59.4676 20.9863 60.024 20.7943 60.4342 20.4527C60.8445 20.111 61.075 19.6477 61.075 19.1645C61.075 18.6814 60.8445 18.218 60.4342 17.8764C60.024 17.5347 59.4676 17.3428 58.8875 17.3428H41.3875C40.8073 17.3428 40.2509 17.5347 39.8407 17.8764Z" fill="#00726D"/>
    <path d="M39.8407 10.7357C39.4304 11.0774 39.2 11.5407 39.2 12.0239C39.2 12.5071 39.4304 12.9704 39.8407 13.3121C40.2509 13.6537 40.8073 13.8456 41.3875 13.8456H58.8875C59.4676 13.8456 60.024 13.6537 60.4342 13.3121C60.8445 12.9704 61.075 12.5071 61.075 12.0239C61.075 11.5407 60.8445 11.0774 60.4342 10.7357C60.024 10.3941 59.4676 10.2021 58.8875 10.2021H41.3875C40.8073 10.2021 40.2509 10.3941 39.8407 10.7357Z" fill="#00726D"/>
    <path d="M70 50.4256C70 54.2908 68.1563 57.9978 64.8744 60.7309C61.5925 63.4641 57.1413 64.9995 52.5 64.9995C47.8587 64.9995 43.4075 63.4641 40.1256 60.7309C36.8437 57.9978 35 54.2908 35 50.4256C35 46.5603 36.8437 42.8533 40.1256 40.1202C43.4075 37.387 47.8587 35.8516 52.5 35.8516C57.1413 35.8516 61.5925 37.387 64.8744 40.1202C68.1563 42.8533 70 46.5603 70 50.4256ZM52.5 43.1386C52.2235 43.1387 51.9501 43.187 51.6975 43.2805C51.4448 43.374 51.2184 43.5105 51.0329 43.6813C50.8475 43.852 50.707 44.0533 50.6206 44.272C50.5342 44.4907 50.5038 44.7221 50.5312 44.9512L51.2969 51.3401C51.3226 51.5911 51.4605 51.8249 51.6833 51.9952C51.9061 52.1656 52.1975 52.2602 52.5 52.2602C52.8025 52.2602 53.0939 52.1656 53.3167 51.9952C53.5395 51.8249 53.6774 51.5911 53.7031 51.3401L54.4688 44.9512C54.4962 44.7221 54.4658 44.4907 54.3794 44.272C54.293 44.0533 54.1525 43.852 53.9671 43.6813C53.7816 43.5105 53.5552 43.374 53.3025 43.2805C53.0499 43.187 52.7765 43.1387 52.5 43.1386ZM52.5044 54.0691C51.9242 54.0691 51.3678 54.261 50.9576 54.6026C50.5473 54.9443 50.3169 55.4076 50.3169 55.8908C50.3169 56.374 50.5473 56.8373 50.9576 57.179C51.3678 57.5206 51.9242 57.7125 52.5044 57.7125C53.0845 57.7125 53.6409 57.5206 54.0512 57.179C54.4614 56.8373 54.6919 56.374 54.6919 55.8908C54.6919 55.4076 54.4614 54.9443 54.0512 54.6026C53.6409 54.261 53.0845 54.0691 52.5044 54.0691Z" fill="#00726D"/>
</svg>
