<svg width="63" height="63" viewBox="0 0 63 63" fill="none" xmlns="http://www.w3.org/2000/svg">
<g id="Group 112">
<path id="Vector" d="M17.352 5.9625C13.5424 6.94681 9.7586 8.01712 6.00402 9.1725C5.66117 9.27662 5.35641 9.46891 5.12445 9.72748C4.89249 9.98605 4.74266 10.3005 4.69202 10.635C2.47602 26.2238 7.59602 37.5975 13.704 45.09C16.2901 48.294 19.3736 51.1166 22.852 53.4637C24.236 54.3787 25.46 55.0387 26.424 55.4625C26.904 55.6763 27.296 55.8187 27.596 55.905C27.7272 55.9481 27.8625 55.9795 28 55.9987C28.1359 55.978 28.2697 55.9467 28.4 55.905C28.704 55.8187 29.096 55.6763 29.576 55.4625C30.536 55.0387 31.764 54.375 33.148 53.4637C36.6263 51.1165 39.7099 48.2939 42.296 45.09C48.404 37.6012 53.524 26.2238 51.308 10.635C51.2578 10.3003 51.1081 9.98569 50.8761 9.72705C50.6441 9.46841 50.3391 9.27623 49.996 9.1725C47.392 8.37375 42.996 7.0725 38.648 5.96625C34.208 4.8375 30.124 4.00125 28 4.00125C25.88 4.00125 21.792 4.83375 17.352 5.9625ZM16.288 2.1C20.628 0.99375 25.24 0 28 0C30.76 0 35.372 0.99375 39.712 2.1C44.152 3.225 48.628 4.55625 51.26 5.3625C52.3604 5.70319 53.336 6.32799 54.0747 7.16513C54.8134 8.00226 55.2852 9.01777 55.436 10.095C57.82 26.8838 52.288 39.3263 45.576 47.5575C42.7298 51.0787 39.336 54.1795 35.508 56.7563C34.1844 57.6479 32.7819 58.432 31.316 59.1C30.196 59.595 28.992 60 28 60C27.008 60 25.808 59.595 24.684 59.1C23.2181 58.432 21.8156 57.6479 20.492 56.7563C16.6641 54.1794 13.2703 51.0786 10.424 47.5575C3.71202 39.3263 -1.81998 26.8838 0.564021 10.095C0.71477 9.01777 1.18659 8.00226 1.92529 7.16513C2.66398 6.32799 3.63958 5.70319 4.74002 5.3625C8.56078 4.18803 12.4112 3.10022 16.288 2.1Z" fill="#00726D"/>
<path id="Vector_2" d="M34.0002 24.3747C34.0009 25.5385 33.6165 26.6737 32.9001 27.6241C32.1837 28.5744 31.1706 29.2931 30.0002 29.681L31.5402 37.1435C31.5963 37.4149 31.5876 37.6946 31.5148 37.9625C31.442 38.2304 31.3069 38.4799 31.1193 38.6931C30.9316 38.9064 30.6959 39.078 30.4291 39.1959C30.1624 39.3137 29.8711 39.3748 29.5762 39.3747H26.4242C26.1297 39.3742 25.8389 39.3128 25.5726 39.1947C25.3064 39.0766 25.0712 38.9049 24.884 38.6917C24.6967 38.4785 24.562 38.2292 24.4894 37.9616C24.4169 37.694 24.4083 37.4146 24.4642 37.1435L26.0002 29.681C24.9633 29.3373 24.0471 28.733 23.3517 27.9341C22.6563 27.1352 22.2085 26.1725 22.0572 25.1512C21.906 24.1299 22.0571 23.0892 22.4941 22.143C22.931 21.1967 23.637 20.3813 24.5349 19.7857C25.4327 19.1902 26.4879 18.8375 27.5851 18.7662C28.6824 18.6948 29.7794 18.9076 30.7563 19.3813C31.7333 19.8549 32.5526 20.5712 33.1247 21.4518C33.6968 22.3325 33.9997 23.3436 34.0002 24.3747Z" fill="#00726D"/>
<path id="Vector_3" d="M62.375 50.8125C62.375 53.9454 61.0383 56.9499 58.6589 59.1652C56.2795 61.3805 53.0524 62.625 49.6875 62.625C46.3226 62.625 43.0955 61.3805 40.7161 59.1652C38.3367 56.9499 37 53.9454 37 50.8125C37 47.6796 38.3367 44.6751 40.7161 42.4598C43.0955 40.2445 46.3226 39 49.6875 39C53.0524 39 56.2795 40.2445 58.6589 42.4598C61.0383 44.6751 62.375 47.6796 62.375 50.8125ZM55.1504 45.1459C54.9462 45.0319 54.7198 44.9566 54.4843 44.9241C54.2488 44.8916 54.0088 44.9026 53.7778 44.9565C53.5469 45.0104 53.3297 45.1061 53.1385 45.2382C52.9473 45.3703 52.7859 45.5362 52.6636 45.7264L48.4224 52.3076L46.4395 50.4615C46.0992 50.1446 45.6376 49.9666 45.1562 49.9666C44.6749 49.9666 44.2133 50.1446 43.873 50.4615C43.5327 50.7784 43.3415 51.2081 43.3415 51.6562C43.3415 52.1044 43.5327 52.5341 43.873 52.851L46.6788 55.4599C46.9708 55.7323 47.3257 55.9391 47.7165 56.0646C48.1073 56.1902 48.5237 56.231 48.9341 56.1842C49.3444 56.1373 49.7378 56.004 50.0845 55.7942C50.4311 55.5845 50.7218 55.3039 50.9345 54.9739L55.7739 47.4611C55.8963 47.271 55.9772 47.0603 56.0121 46.841C56.047 46.6218 56.0352 46.3982 55.9773 46.1832C55.9194 45.9682 55.8165 45.766 55.6747 45.588C55.5328 45.41 55.3546 45.2598 55.1504 45.1459Z" fill="#00726D"/>
</g>
</svg>
