<svg width="56" height="60" viewBox="0 0 56 60" fill="none" xmlns="http://www.w3.org/2000/svg">
    <path d="M42.0005 5.4854C41.997 5.56289 42.0106 5.64023 42.0404 5.71267C42.0702 5.78512 42.1156 5.85112 42.1739 5.90664C42.2322 5.96215 42.3021 6.006 42.3792 6.03548C42.4564 6.06497 42.5393 6.07947 42.6227 6.07809H44.7524C45.1087 6.07809 45.3926 5.80694 45.4391 5.4782C45.6714 3.90409 46.8331 2.7571 48.9035 2.7571C50.6744 2.7571 52.2956 3.58015 52.2956 5.55978C52.2956 7.0835 51.3301 7.78418 49.8044 8.84958C48.0671 10.023 46.6911 11.3931 46.7892 13.6175L46.797 14.1382C46.7997 14.2956 46.8689 14.4458 46.9896 14.5562C47.1103 14.6666 47.273 14.7285 47.4423 14.7285H49.5359C49.7071 14.7285 49.8713 14.6653 49.9923 14.5528C50.1133 14.4403 50.1813 14.2877 50.1813 14.1286V13.8767C50.1813 12.1538 50.8861 11.6523 52.7886 10.3109C54.3607 9.19992 56 7.96654 56 5.37742C56 1.75168 52.706 0 49.0997 0C45.8289 0 42.2458 1.41574 42.0005 5.4854ZM46.0199 19.3141C46.0199 20.593 47.1171 21.5385 48.6272 21.5385C50.1994 21.5385 51.281 20.593 51.281 19.3141C51.281 17.9895 50.1968 17.0585 48.6247 17.0585C47.1171 17.0585 46.0199 17.9895 46.0199 19.3141Z" fill="#00726D"/>
    <path d="M21 9.51919C23.2278 9.51919 25.3644 10.2283 26.9397 11.4906C28.515 12.7529 29.4 14.4649 29.4 16.25V29.7115H12.6V16.25C12.6 14.4649 13.485 12.7529 15.0603 11.4906C16.6356 10.2283 18.7722 9.51919 21 9.51919ZM33.6 29.7115V16.25C33.6 13.5723 32.2725 11.0043 29.9095 9.1109C27.5466 7.21751 24.3417 6.15381 21 6.15381C17.6583 6.15381 14.4534 7.21751 12.0905 9.1109C9.7275 11.0043 8.4 13.5723 8.4 16.25V29.7115C6.17218 29.7115 4.03561 30.4206 2.4603 31.6829C0.884997 32.9452 0 34.6572 0 36.4423L0 53.2692C0 55.0543 0.884997 56.7663 2.4603 58.0286C4.03561 59.2908 6.17218 60 8.4 60H33.6C35.8278 60 37.9644 59.2908 39.5397 58.0286C41.115 56.7663 42 55.0543 42 53.2692V36.4423C42 34.6572 41.115 32.9452 39.5397 31.6829C37.9644 30.4206 35.8278 29.7115 33.6 29.7115ZM8.4 33.0769H33.6C34.7139 33.0769 35.7822 33.4315 36.5698 34.0626C37.3575 34.6937 37.8 35.5497 37.8 36.4423V53.2692C37.8 54.1617 37.3575 55.0177 36.5698 55.6489C35.7822 56.28 34.7139 56.6346 33.6 56.6346H8.4C7.28609 56.6346 6.2178 56.28 5.43015 55.6489C4.6425 55.0177 4.2 54.1617 4.2 53.2692V36.4423C4.2 35.5497 4.6425 34.6937 5.43015 34.0626C6.2178 33.4315 7.28609 33.0769 8.4 33.0769Z" fill="#00726D"/>
    </svg>
    