<svg width="20" height="24" viewBox="0 0 20 24" fill="none" xmlns="http://www.w3.org/2000/svg">
    <path fill-rule="evenodd" clip-rule="evenodd" d="M13.234 12.8685C16.9587 13.1129 20.0199 17.2707 19.9999 21.0388C19.9912 22.68 18.6418 24 16.9999 24H3.00007C1.35821 24 0.00884746 22.68 9.75421e-05 21.0388C-0.0199124 17.2708 3.04136 13.113 6.76597 12.8685C5.10244 11.0434 4.00006 8.12283 4.00006 6C4.00006 2.68625 6.68628 0 10 0C13.3137 0 15.9999 2.68625 15.9999 6C15.9999 8.12283 14.8976 11.0434 13.234 12.8685ZM8.57969 16.4886C8.49035 16.6964 8.44436 16.9192 8.44436 17.1442C8.44436 17.5986 8.63166 18.0343 8.96506 18.3556C9.29846 18.6769 9.75064 18.8574 10.2221 18.8574C10.6936 18.8574 11.1458 18.6769 11.4792 18.3556C11.8126 18.0343 11.9999 17.5986 11.9999 17.1442C11.9999 16.9192 11.9539 16.6964 11.8646 16.4886C11.7753 16.2807 11.6443 16.0919 11.4792 15.9328C11.3141 15.7737 11.1182 15.6475 10.9025 15.5614C10.6868 15.4753 10.4556 15.431 10.2221 15.431C9.98868 15.431 9.7575 15.4753 9.54181 15.5614C9.32612 15.6475 9.13014 15.7737 8.96506 15.9328C8.79998 16.0919 8.66903 16.2807 8.57969 16.4886ZM8.68827 6.21496C8.61865 6.42168 8.59491 6.6402 8.61858 6.85634L9.24081 12.8646C9.26609 13.0975 9.38 13.3132 9.56057 13.4699C9.74113 13.6267 9.97555 13.7134 10.2186 13.7134C10.4616 13.7134 10.696 13.6267 10.8766 13.4699C11.0572 13.3132 11.1711 13.0975 11.1964 12.8646L11.8186 6.85634C11.8423 6.6402 11.8185 6.42168 11.7489 6.21496C11.6793 6.00824 11.5653 5.81793 11.4145 5.65638C11.2636 5.49484 11.0792 5.36566 10.8731 5.27724C10.6671 5.18882 10.4441 5.14313 10.2186 5.14313C9.99306 5.14313 9.77005 5.18882 9.56403 5.27724C9.35801 5.36566 9.17358 5.49484 9.02271 5.65638C8.87184 5.81793 8.75789 6.00824 8.68827 6.21496Z" fill="#00726D"/>
</svg>
