<svg width="58" height="46" viewBox="0 0 58 46" fill="none" xmlns="http://www.w3.org/2000/svg">
<path d="M7.25 0C5.32718 0 3.48311 0.711158 2.12348 1.97703C0.763837 3.2429 0 4.95979 0 6.75L0 33.7838C0.00958278 35.5681 0.777648 37.2763 2.13625 38.5349C3.49485 39.7935 5.33344 40.5 7.25 40.5H27.1875C27.6682 40.5 28.1292 40.3222 28.4691 40.0057C28.809 39.6893 29 39.2601 29 38.8125C29 38.3649 28.809 37.9357 28.4691 37.6193C28.1292 37.3028 27.6682 37.125 27.1875 37.125H7.25C6.45205 37.1251 5.67637 36.8801 5.04324 36.4279C4.41011 35.9757 3.95492 35.3417 3.74825 34.6241L24.1932 22.9095L29 25.5926L54.375 11.4176V21.9375C54.375 22.3851 54.566 22.8143 54.9059 23.1307C55.2458 23.4472 55.7068 23.625 56.1875 23.625C56.6682 23.625 57.1292 23.4472 57.4691 23.1307C57.809 22.8143 58 22.3851 58 21.9375V6.75C58 4.95979 57.2362 3.2429 55.8765 1.97703C54.5169 0.711158 52.6728 0 50.75 0H7.25ZM20.6915 20.952L3.625 30.7294V11.4176L20.6915 20.952ZM3.625 7.48238V6.75C3.625 5.85489 4.00692 4.99645 4.68674 4.36351C5.36656 3.73058 6.28859 3.375 7.25 3.375H50.75C51.7114 3.375 52.6334 3.73058 53.3133 4.36351C53.9931 4.99645 54.375 5.85489 54.375 6.75V7.48238L29 21.6574L3.625 7.48238Z" fill="#00726D"/>
<path d="M58 33.9524C58 37.0853 56.6633 40.0898 54.2839 42.3051C51.9045 44.5204 48.6774 45.7649 45.3125 45.7649C41.9476 45.7649 38.7205 44.5204 36.3411 42.3051C33.9617 40.0898 32.625 37.0853 32.625 33.9524C32.625 30.8195 33.9617 27.815 36.3411 25.5997C38.7205 23.3844 41.9476 22.1399 45.3125 22.1399C48.6774 22.1399 51.9045 23.3844 54.2839 25.5997C56.6633 27.815 58 30.8195 58 33.9524ZM50.7754 28.2858C50.5712 28.1718 50.3448 28.0965 50.1093 28.064C49.8738 28.0315 49.6338 28.0425 49.4028 28.0964C49.1719 28.1503 48.9547 28.246 48.7635 28.3781C48.5723 28.5102 48.4109 28.6761 48.2886 28.8663L44.0474 35.4475L42.0645 33.6014C41.7242 33.2845 41.2626 33.1065 40.7812 33.1065C40.2999 33.1065 39.8383 33.2845 39.498 33.6014C39.1577 33.9183 38.9665 34.348 38.9665 34.7961C38.9665 35.2443 39.1577 35.674 39.498 35.9909L42.3038 38.5998C42.5958 38.8722 42.9507 39.079 43.3415 39.2045C43.7323 39.33 44.1487 39.3709 44.5591 39.3241C44.9694 39.2772 45.3628 39.1438 45.7095 38.9341C46.0561 38.7244 46.3468 38.4438 46.5595 38.1138L51.3989 30.601C51.5213 30.4109 51.6022 30.2002 51.6371 29.9809C51.672 29.7617 51.6602 29.5381 51.6023 29.3231C51.5444 29.1081 51.4415 28.9059 51.2997 28.7279C51.1578 28.5499 50.9796 28.3996 50.7754 28.2858Z" fill="#00726D"/>
</svg>
