<svg width="16" height="16" viewBox="0 0 16 16" fill="none" xmlns="http://www.w3.org/2000/svg">
    <path d="M9.19719 14.9283L8.40442 15.7417C8.06874 16.0861 7.52595 16.0861 7.19384 15.7417L0.251758 8.62285C-0.0839192 8.27845 -0.0839192 7.72155 0.251758 7.38081L7.19384 0.258301C7.52952 -0.0861003 8.07231 -0.0861003 8.40442 0.258301L9.19719 1.07167C9.53644 1.41974 9.52929 1.98763 9.1829 2.32837L4.87981 6.53446H15.143C15.6179 6.53446 16 6.9265 16 7.41379V8.58622C16 9.07351 15.6179 9.46554 15.143 9.46554H4.87981L9.1829 13.6716C9.53286 14.0124 9.54001 14.5803 9.19719 14.9283Z" fill="#00726D"/>
</svg>
