<svg width="86" height="86" viewBox="0 0 86 86" fill="none" xmlns="http://www.w3.org/2000/svg">
<path id="anonymous_report_icon" d="M86 43C86 54.4043 81.4697 65.3415 73.4056 73.4056C65.3415 81.4697 54.4043 86 43 86C31.5957 86 20.6585 81.4697 12.5944 73.4056C4.53034 65.3415 0 54.4043 0 43C0 31.5957 4.53034 20.6585 12.5944 12.5944C20.6585 4.53034 31.5957 0 43 0C54.4043 0 65.3415 4.53034 73.4056 12.5944C81.4697 20.6585 86 31.5957 86 43ZM43 21.5C42.3206 21.5004 41.6489 21.6431 41.028 21.9189C40.4072 22.1947 39.8509 22.5974 39.3952 23.1013C38.9395 23.6051 38.5944 24.1988 38.382 24.8441C38.1697 25.4895 38.0949 26.1721 38.1625 26.8481L40.0438 45.6982C40.107 46.4388 40.4458 47.1286 40.9932 47.6313C41.5406 48.134 42.2568 48.4129 43 48.4129C43.7432 48.4129 44.4594 48.134 45.0068 47.6313C45.5542 47.1286 45.893 46.4388 45.9562 45.6982L47.8375 26.8481C47.9051 26.1721 47.8303 25.4895 47.618 24.8441C47.4056 24.1988 47.0605 23.6051 46.6048 23.1013C46.1491 22.5974 45.5928 22.1947 44.972 21.9189C44.3511 21.6431 43.6794 21.5004 43 21.5ZM43.0107 53.75C41.5852 53.75 40.2181 54.3163 39.2101 55.3243C38.202 56.3323 37.6357 57.6995 37.6357 59.125C37.6357 60.5505 38.202 61.9177 39.2101 62.9257C40.2181 63.9337 41.5852 64.5 43.0107 64.5C44.4363 64.5 45.8034 63.9337 46.8114 62.9257C47.8195 61.9177 48.3857 60.5505 48.3857 59.125C48.3857 57.6995 47.8195 56.3323 46.8114 55.3243C45.8034 54.3163 44.4363 53.75 43.0107 53.75Z" fill="#00726D"/>
</svg>
