<svg width="84" height="111" viewBox="0 0 84 111" fill="none" xmlns="http://www.w3.org/2000/svg">
<g id="assigned_batch_icon">
<path id="Vector" d="M71.0769 0H25.8462C22.4187 0 19.1317 1.46183 16.7082 4.06389C14.2846 6.66596 12.9231 10.1951 12.9231 13.875C9.49566 13.875 6.20863 15.3368 3.78508 17.9389C1.36153 20.541 0 24.0701 0 27.75V97.125C0 100.805 1.36153 104.334 3.78508 106.936C6.20863 109.538 9.49566 111 12.9231 111H58.1538C61.5813 111 64.8683 109.538 67.2918 106.936C69.7154 104.334 71.0769 100.805 71.0769 97.125C74.5043 97.125 77.7914 95.6632 80.2149 93.0611C82.6385 90.459 84 86.9299 84 83.25V13.875C84 10.1951 82.6385 6.66596 80.2149 4.06389C77.7914 1.46183 74.5043 0 71.0769 0ZM71.0769 90.1875V27.75C71.0769 24.0701 69.7154 20.541 67.2918 17.9389C64.8683 15.3368 61.5813 13.875 58.1538 13.875H19.3846C19.3846 12.0351 20.0654 10.2705 21.2772 8.96945C22.4889 7.66841 24.1324 6.9375 25.8462 6.9375H71.0769C72.7906 6.9375 74.4341 7.66841 75.6459 8.96945C76.8577 10.2705 77.5385 12.0351 77.5385 13.875V83.25C77.5385 85.0899 76.8577 86.8545 75.6459 88.1556C74.4341 89.4566 72.7906 90.1875 71.0769 90.1875ZM6.46154 27.75C6.46154 25.9101 7.14231 24.1455 8.35408 22.8444C9.56585 21.5434 11.2094 20.8125 12.9231 20.8125H58.1538C59.8676 20.8125 61.5111 21.5434 62.7228 22.8444C63.9346 24.1455 64.6154 25.9101 64.6154 27.75V97.125C64.6154 98.9649 63.9346 100.73 62.7228 102.031C61.5111 103.332 59.8676 104.062 58.1538 104.062H12.9231C11.2094 104.062 9.56585 103.332 8.35408 102.031C7.14231 100.73 6.46154 98.9649 6.46154 97.125V27.75Z" fill="#00726D"/>
<g id="chat_any-icon">
<path id="Vector_2" d="M37.6105 73.4557C37.3392 73.4557 37.0679 73.4918 36.8091 73.5684C35.338 74.0037 33.7908 74.2829 32.162 74.2829C30.5331 74.2829 28.9859 74.0037 27.5137 73.5684C27.2549 73.4918 26.9847 73.4557 26.7134 73.4557C19.6689 73.4557 13.9627 78.6753 14.0002 85.1006C14.0161 87.8159 16.4668 89.9997 19.4487 89.9997H44.8752C47.8571 89.9997 50.3078 87.8159 50.3237 85.1006C50.3612 78.6753 44.655 73.4557 37.6105 73.4557ZM32.162 70.1468C38.1803 70.1468 43.059 65.7027 43.059 60.2204C43.059 54.7381 38.1803 50.2939 32.162 50.2939C26.1436 50.2939 21.2649 54.7381 21.2649 60.2204C21.2649 65.7027 26.1436 70.1468 32.162 70.1468Z" fill="#00726D"/>
<g id="Group 10">
<path id="Vector_3" d="M43.024 41.6116C43.024 41.8999 42.8952 42.1765 42.6659 42.3803C42.4367 42.5842 42.1257 42.6988 41.8015 42.6988C41.4773 42.6988 41.1664 42.5842 40.9371 42.3803C40.7079 42.1765 40.5791 41.8999 40.5791 41.6116C40.5791 41.3233 40.7079 41.0467 40.9371 40.8428C41.1664 40.639 41.4773 40.5244 41.8015 40.5244C42.1257 40.5244 42.4367 40.639 42.6659 40.8428C42.8952 41.0467 43.024 41.3233 43.024 41.6116V41.6116ZM47.9136 41.6116C47.9136 41.8999 47.7849 42.1765 47.5556 42.3803C47.3264 42.5842 47.0154 42.6988 46.6912 42.6988C46.367 42.6988 46.0561 42.5842 45.8268 42.3803C45.5976 42.1765 45.4688 41.8999 45.4688 41.6116C45.4688 41.3233 45.5976 41.0467 45.8268 40.8428C46.0561 40.639 46.367 40.5244 46.6912 40.5244C47.0154 40.5244 47.3264 40.639 47.5556 40.8428C47.7849 41.0467 47.9136 41.3233 47.9136 41.6116ZM51.5809 42.6988C51.9051 42.6988 52.2161 42.5842 52.4453 42.3803C52.6746 42.1765 52.8033 41.8999 52.8033 41.6116C52.8033 41.3233 52.6746 41.0467 52.4453 40.8428C52.2161 40.639 51.9051 40.5244 51.5809 40.5244C51.2567 40.5244 50.9458 40.639 50.7165 40.8428C50.4873 41.0467 50.3585 41.3233 50.3585 41.6116C50.3585 41.8999 50.4873 42.1765 50.7165 42.3803C50.9458 42.5842 51.2567 42.6988 51.5809 42.6988V42.6988Z" fill="#00726D"/>
<path id="Vector_4" d="M39.7737 50.1676L39.7974 50.1633C41.967 49.7668 43.2924 49.2436 43.9089 48.9564C44.8165 49.1794 45.752 49.2918 46.6914 49.2906C51.9291 49.2906 56.1757 45.8677 56.1757 41.6453C56.1757 37.4229 51.9291 34 46.6914 34C41.4536 34 37.207 37.4229 37.207 41.6453C37.207 43.5675 38.0879 45.326 39.5425 46.6694C39.4408 47.5323 39.2324 48.3817 38.9213 49.201L38.9178 49.2131C38.8294 49.4477 38.7329 49.6798 38.6285 49.9088C38.5348 50.1119 38.7162 50.3391 38.9521 50.3041C39.2268 50.2627 39.5007 50.2172 39.7737 50.1676ZM40.7222 46.7731C40.7388 46.6132 40.7169 46.4519 40.6581 46.3007C40.5993 46.1495 40.505 46.0121 40.3819 45.8983C39.1252 44.7362 38.3926 43.2486 38.3926 41.6453C38.3926 38.159 41.9539 35.0922 46.6914 35.0922C51.4288 35.0922 54.9901 38.159 54.9901 41.6453C54.9901 45.1326 51.4288 48.1984 46.6914 48.1984C45.8557 48.1995 45.0234 48.0997 44.2159 47.9013C43.9338 47.8317 43.6336 47.8605 43.373 47.9822C42.9142 48.1962 41.903 48.6047 40.2503 48.9575C40.4809 48.2444 40.6388 47.5132 40.7222 46.7731Z" fill="#00726D"/>
</g>
</g>
</g>
</svg>
