<svg width="88" height="76" viewBox="0 0 88 76" fill="none" xmlns="http://www.w3.org/2000/svg">
<g id="batch_addvisor_icon">
<path id="Vector" d="M77 40.7146C77 43.5941 75.8411 46.3556 73.7782 48.3917C71.7153 50.4278 68.9174 51.5717 66 51.5717C63.0826 51.5717 60.2847 50.4278 58.2218 48.3917C56.1589 46.3556 55 43.5941 55 40.7146C55 37.8351 56.1589 35.0735 58.2218 33.0374C60.2847 31.0013 63.0826 29.8574 66 29.8574C68.9174 29.8574 71.7153 31.0013 73.7782 33.0374C75.8411 35.0735 77 37.8351 77 40.7146ZM44 71.6574C44 76.0003 48.4 76.0003 48.4 76.0003H83.6C83.6 76.0003 88 76.0003 88 71.6574C88 67.3146 83.6 54.286 66 54.286C48.4 54.286 44 67.3146 44 71.6574Z" fill="#00726D"/>
<path id="Vector_2" d="M11 0C8.08262 0 5.28473 1.14387 3.22183 3.17998C1.15893 5.21609 0 7.97765 0 10.8571L0 54.2857C0 57.1652 1.15893 59.9268 3.22183 61.9629C5.28473 63.999 8.08262 65.1429 11 65.1429H39.8365C40.5075 63.3731 41.459 61.5166 42.7295 59.7143H11C9.54131 59.7143 8.14236 59.1423 7.11091 58.1243C6.07946 57.1062 5.5 55.7255 5.5 54.2857V10.8571C5.5 9.4174 6.07946 8.03662 7.11091 7.01856C8.14236 6.00051 9.54131 5.42857 11 5.42857H77C78.4587 5.42857 79.8576 6.00051 80.8891 7.01856C81.9205 8.03662 82.5 9.4174 82.5 10.8571V53.2543C84.4415 54.5029 86.108 55.9469 87.505 57.5049C87.8295 56.4897 88 55.4094 88 54.2857V10.8571C88 7.97765 86.8411 5.21609 84.7782 3.17998C82.7153 1.14387 79.9174 0 77 0H11Z" fill="#00726D"/>
<path id="Vector_3" d="M47.9506 18.2521C48.0931 18.3933 48.2062 18.561 48.2833 18.7456C48.3605 18.9302 48.4002 19.1282 48.4002 19.328C48.4002 19.5279 48.3605 19.7259 48.2833 19.9105C48.2062 20.0951 48.0931 20.2628 47.9506 20.404L26.5274 41.6792C26.3852 41.8207 26.2164 41.933 26.0305 42.0096C25.8446 42.0862 25.6453 42.1257 25.444 42.1257C25.2427 42.1257 25.0434 42.0862 24.8575 42.0096C24.6716 41.933 24.5027 41.8207 24.3606 41.6792L13.649 31.0416C13.3616 30.7562 13.2002 30.3692 13.2002 29.9657C13.2002 29.5621 13.3616 29.1751 13.649 28.8897C13.9363 28.6044 14.326 28.4441 14.7324 28.4441C15.1387 28.4441 15.5284 28.6044 15.8158 28.8897L25.444 38.4545L45.7838 18.2521C45.926 18.1106 46.0948 17.9983 46.2807 17.9217C46.4667 17.8451 46.666 17.8057 46.8672 17.8057C47.0685 17.8057 47.2678 17.8451 47.4537 17.9217C47.6396 17.9983 47.8085 18.1106 47.9506 18.2521Z" fill="#00726D"/>
</g>
</svg>
