<svg width="84" height="111" viewBox="0 0 84 111" fill="none" xmlns="http://www.w3.org/2000/svg">
<g id="chat_any-icon">
<path id="Vector" d="M46.7994 78.2067C46.2617 78.2067 45.724 78.2785 45.211 78.4301C42.295 79.293 39.2283 79.8464 35.9996 79.8464C32.771 79.8464 29.7043 79.293 26.7861 78.4301C26.2731 78.2785 25.7376 78.2067 25.1999 78.2067C11.2366 78.2067 -0.0738851 88.5529 0.000363476 101.289C0.0318628 106.671 4.88952 111 10.8001 111H61.1991C67.1098 111 71.9674 106.671 71.9989 101.289C72.0732 88.5529 60.7627 78.2067 46.7994 78.2067ZM35.9996 71.6482C47.9289 71.6482 57.5992 62.8392 57.5992 51.9725C57.5992 41.1058 47.9289 32.2969 35.9996 32.2969C24.0704 32.2969 14.4001 41.1058 14.4001 51.9725C14.4001 62.8392 24.0704 71.6482 35.9996 71.6482Z" fill="#00726D"/>
<g id="Group 10">
<path id="Vector_2" d="M57.5292 15.0866C57.5292 15.6581 57.2739 16.2062 56.8195 16.6104C56.3651 17.0145 55.7488 17.2415 55.1061 17.2415C54.4635 17.2415 53.8472 17.0145 53.3928 16.6104C52.9384 16.2062 52.6831 15.6581 52.6831 15.0866C52.6831 14.5151 52.9384 13.9669 53.3928 13.5628C53.8472 13.1587 54.4635 12.9316 55.1061 12.9316C55.7488 12.9316 56.3651 13.1587 56.8195 13.5628C57.2739 13.9669 57.5292 14.5151 57.5292 15.0866ZM67.2212 15.0866C67.2212 15.6581 66.966 16.2062 66.5116 16.6104C66.0572 17.0145 65.4408 17.2415 64.7982 17.2415C64.1556 17.2415 63.5393 17.0145 63.0849 16.6104C62.6305 16.2062 62.3752 15.6581 62.3752 15.0866C62.3752 14.5151 62.6305 13.9669 63.0849 13.5628C63.5393 13.1587 64.1556 12.9316 64.7982 12.9316C65.4408 12.9316 66.0572 13.1587 66.5116 13.5628C66.966 13.9669 67.2212 14.5151 67.2212 15.0866ZM74.4903 17.2415C75.1329 17.2415 75.7492 17.0145 76.2036 16.6104C76.6581 16.2062 76.9133 15.6581 76.9133 15.0866C76.9133 14.5151 76.6581 13.9669 76.2036 13.5628C75.7492 13.1587 75.1329 12.9316 74.4903 12.9316C73.8477 12.9316 73.2314 13.1587 72.777 13.5628C72.3226 13.9669 72.0673 14.5151 72.0673 15.0866C72.0673 15.6581 72.3226 16.2062 72.777 16.6104C73.2314 17.0145 73.8477 17.2415 74.4903 17.2415Z" fill="#00726D"/>
<path id="Vector_3" d="M51.0876 32.0466L51.1346 32.0379C55.4349 31.2521 58.0621 30.2151 59.2841 29.6457C61.0831 30.0878 62.9374 30.3105 64.7993 30.3082C75.1812 30.3082 83.5986 23.5235 83.5986 15.1541C83.5986 6.78471 75.1812 0 64.7993 0C54.4174 0 46 6.78471 46 15.1541C46 18.9643 47.746 22.4497 50.6293 25.1125C50.4276 26.823 50.0145 28.5066 49.398 30.1307L49.3909 30.1545C49.2157 30.6196 49.0245 31.0796 48.8175 31.5335C48.6319 31.9362 48.9914 32.3865 49.4591 32.3172C50.0035 32.2351 50.5464 32.1449 51.0876 32.0466ZM52.9675 25.3182C53.0004 25.0012 52.957 24.6815 52.8405 24.3818C52.7239 24.082 52.537 23.8097 52.2931 23.5841C49.8022 21.2807 48.3499 18.3321 48.3499 15.1541C48.3499 8.24383 55.4091 2.16487 64.7993 2.16487C74.1896 2.16487 81.2487 8.24383 81.2487 15.1541C81.2487 22.0665 74.1896 28.1433 64.7993 28.1433C63.1429 28.1455 61.4932 27.9476 59.8927 27.5545C59.3334 27.4164 58.7384 27.4735 58.2219 27.7147C57.3125 28.139 55.308 28.9487 52.0322 29.6479C52.4892 28.2345 52.8023 26.785 52.9675 25.3182Z" fill="#00726D"/>
</g>
</g>
</svg>
