<svg width="40" height="48" viewBox="0 0 40 48" fill="none" xmlns="http://www.w3.org/2000/svg">
<path id="delete_icon" d="M0 3.42857C0 2.51926 0.263392 1.64719 0.732233 1.00421C1.20107 0.361223 1.83696 0 2.5 0L37.5 0C38.163 0 38.7989 0.361223 39.2678 1.00421C39.7366 1.64719 40 2.51926 40 3.42857V10.2857C40 11.195 39.7366 12.0671 39.2678 12.7101C38.7989 13.3531 38.163 13.7143 37.5 13.7143V39.4286C37.5 41.7019 36.8415 43.882 35.6694 45.4895C34.4973 47.0969 32.9076 48 31.25 48H8.75C7.0924 48 5.50269 47.0969 4.33058 45.4895C3.15848 43.882 2.5 41.7019 2.5 39.4286V13.7143C1.83696 13.7143 1.20107 13.3531 0.732233 12.7101C0.263392 12.0671 0 11.195 0 10.2857L0 3.42857ZM5 13.7143V39.4286C5 40.7925 5.39509 42.1006 6.09835 43.0651C6.80161 44.0296 7.75544 44.5714 8.75 44.5714H31.25C32.2446 44.5714 33.1984 44.0296 33.9016 43.0651C34.6049 42.1006 35 40.7925 35 39.4286V13.7143H5ZM37.5 3.42857H2.5V10.2857H37.5V3.42857ZM12.5 22.2857C12.5 21.8311 12.6317 21.395 12.8661 21.0735C13.1005 20.752 13.4185 20.5714 13.75 20.5714H26.25C26.5815 20.5714 26.8995 20.752 27.1339 21.0735C27.3683 21.395 27.5 21.8311 27.5 22.2857C27.5 22.7404 27.3683 23.1764 27.1339 23.4979C26.8995 23.8194 26.5815 24 26.25 24H13.75C13.4185 24 13.1005 23.8194 12.8661 23.4979C12.6317 23.1764 12.5 22.7404 12.5 22.2857Z" fill="#00726D"/>
</svg>
