<svg width="82" height="92" viewBox="0 0 82 92" fill="none" xmlns="http://www.w3.org/2000/svg">
<g id="group_chat_icon">
<path id="Vector" d="M38.0566 15.151C38.0566 14.7476 38.1899 14.3607 38.4272 14.0754C38.6645 13.7901 38.9863 13.6299 39.3218 13.6299H57.0343C57.3698 13.6299 57.6916 13.7901 57.9289 14.0754C58.1661 14.3607 58.2994 14.7476 58.2994 15.151C58.2994 15.5545 58.1661 15.9414 57.9289 16.2267C57.6916 16.5119 57.3698 16.6722 57.0343 16.6722H39.3218C38.9863 16.6722 38.6645 16.5119 38.4272 16.2267C38.1899 15.9414 38.0566 15.5545 38.0566 15.151ZM38.0566 22.7569C38.0566 22.3534 38.1899 21.9665 38.4272 21.6812C38.6645 21.396 38.9863 21.2357 39.3218 21.2357H57.0343C57.3698 21.2357 57.6916 21.396 57.9289 21.6812C58.1661 21.9665 58.2994 22.3534 58.2994 22.7569C58.2994 23.1603 58.1661 23.5472 57.9289 23.8325C57.6916 24.1178 57.3698 24.278 57.0343 24.278H39.3218C38.9863 24.278 38.6645 24.1178 38.4272 23.8325C38.1899 23.5472 38.0566 23.1603 38.0566 22.7569ZM38.0566 30.3627C38.0566 29.9592 38.1899 29.5723 38.4272 29.2871C38.6645 29.0018 38.9863 28.8415 39.3218 28.8415H49.4432C49.7788 28.8415 50.1006 29.0018 50.3378 29.2871C50.5751 29.5723 50.7084 29.9592 50.7084 30.3627C50.7084 30.7661 50.5751 31.153 50.3378 31.4383C50.1006 31.7236 49.7788 31.8839 49.4432 31.8839H39.3218C38.9863 31.8839 38.6645 31.7236 38.4272 31.4383C38.1899 31.153 38.0566 30.7661 38.0566 30.3627Z" fill="#00726D"/>
<path id="Vector_2" d="M61.305 31.4455C61.0455 31.7462 60.8467 32.1094 60.7226 32.509C60.5986 32.9087 60.5525 33.335 60.5875 33.7576C60.7632 35.7134 61.0963 37.6461 61.5825 39.5306C58.095 38.5982 55.965 37.5187 54.9975 36.9529C54.4487 36.632 53.8168 36.556 53.2225 36.7393C51.5189 37.2637 49.7631 37.5277 48 37.5245C38.01 37.5245 30.5 29.4221 30.5 20.2055C30.5 10.9918 38.01 2.8865 48 2.8865C57.99 2.8865 65.5 10.9918 65.5 20.2055C65.5 24.4429 63.9575 28.3743 61.305 31.4455ZM62.5375 42.7173C63.1298 42.8528 63.7241 42.977 64.32 43.0896C64.82 43.182 65.2 42.5816 65.0025 42.0447C64.7805 41.4403 64.5771 40.827 64.3925 40.206L64.385 40.1771C63.765 38.0989 63.26 35.7089 63.075 33.4834C66.1425 29.933 68 25.2857 68 20.2055C68 9.04628 59.045 0 48 0C36.955 0 28 9.04628 28 20.2055C28 31.3647 36.955 40.4109 48 40.4109C49.9809 40.414 51.9535 40.1171 53.8675 39.5277C55.1675 40.2868 57.965 41.6695 62.5375 42.7173Z" fill="#00726D"/>
<path id="Vector_3" d="M28.441 92.0001C28.441 92.0001 25.9106 92.0001 25.9106 88.9578C25.9106 85.9155 28.441 76.7885 41.0927 76.7885C53.7445 76.7885 56.2748 85.9155 56.2748 88.9578C56.2748 92.0001 53.7445 92.0001 53.7445 92.0001H28.441ZM41.0927 73.7462C43.106 73.7462 45.0368 72.7846 46.4604 71.0729C47.884 69.3613 48.6838 67.0398 48.6838 64.6192C48.6838 62.1985 47.884 59.8771 46.4604 58.1654C45.0368 56.4538 43.106 55.4922 41.0927 55.4922C39.0795 55.4922 37.1487 56.4538 35.7251 58.1654C34.3015 59.8771 33.5017 62.1985 33.5017 64.6192C33.5017 67.0398 34.3015 69.3613 35.7251 71.0729C37.1487 72.7846 39.0795 73.7462 41.0927 73.7462Z" fill="#00726D"/>
<g id="Group 123">
<path id="Subtract" fill-rule="evenodd" clip-rule="evenodd" d="M0 85.0633C0 88.1056 2.53035 88.1056 2.53035 88.1056H23.1785C23.1137 87.8218 23.0769 87.4991 23.0769 87.1322C23.0769 85.2551 24.0401 81.0619 27.7493 78.1251C25.5721 75.342 21.7345 72.894 15.1821 72.894C2.53035 72.894 0 82.0209 0 85.0633ZM20.5498 67.1784C19.1262 68.89 17.1954 69.8516 15.1821 69.8516C13.1688 69.8516 11.238 68.89 9.81441 67.1784C8.39082 65.4667 7.59105 63.1453 7.59105 60.7246C7.59105 58.304 8.39082 55.9825 9.81441 54.2709C11.238 52.5592 13.1688 51.5977 15.1821 51.5977C17.1954 51.5977 19.1262 52.5592 20.5498 54.2709C21.9734 55.9825 22.7731 58.304 22.7731 60.7246C22.7731 63.1453 21.9734 65.4667 20.5498 67.1784Z" fill="#00726D"/>
</g>
<g id="Group 124">
<path id="Subtract_2" fill-rule="evenodd" clip-rule="evenodd" d="M54.251 78.1249C57.9604 81.0618 58.9236 85.2551 58.9236 87.1322C58.9236 87.4991 58.8868 87.8218 58.822 88.1056H79.4699C79.4699 88.1056 82.0002 88.1056 82.0002 85.0633C82.0002 82.0209 79.4699 72.894 66.8181 72.894C60.2658 72.894 56.4283 75.3419 54.251 78.1249ZM72.1858 67.1784C70.7622 68.89 68.8314 69.8516 66.8181 69.8516C64.8048 69.8516 62.874 68.89 61.4504 67.1784C60.0268 65.4667 59.2271 63.1453 59.2271 60.7246C59.2271 58.304 60.0268 55.9825 61.4504 54.2709C62.874 52.5592 64.8048 51.5977 66.8181 51.5977C68.8314 51.5977 70.7622 52.5592 72.1858 54.2709C73.6094 55.9825 74.4092 58.304 74.4092 60.7246C74.4092 63.1453 73.6094 65.4667 72.1858 67.1784Z" fill="#00726D"/>
</g>
<path id="Subtract_3" fill-rule="evenodd" clip-rule="evenodd" d="M26.7204 17.0371C26.7822 17.0371 26.8439 17.0376 26.9054 17.0386C26.7705 17.6169 26.6577 18.2046 26.5681 18.8006C26.4842 18.7986 26.4 18.7976 26.3155 18.7976C20.451 18.7976 16.0423 23.7409 16.0423 29.3602C16.0423 31.9446 16.9478 34.3423 18.5049 36.2154C18.6573 36.3988 18.774 36.6203 18.8468 36.864C18.9196 37.1078 18.9467 37.3678 18.9261 37.6255C18.823 38.8184 18.6275 39.9971 18.342 41.1464C20.3893 40.5778 21.6397 39.9194 22.2077 39.5743C22.5299 39.3786 22.9008 39.3322 23.2497 39.4441C24.2498 39.7639 25.2805 39.9249 26.3155 39.9229C28.7304 39.9229 30.8984 39.085 32.6134 37.7069C33.0046 38.0979 33.4106 38.4721 33.8304 38.8286C31.7941 40.611 29.1741 41.6834 26.3155 41.6834C25.1527 41.6852 23.9946 41.5041 22.8711 41.1447C22.1079 41.6077 20.4657 42.4509 17.7814 43.0899C17.4337 43.1726 17.0848 43.2483 16.735 43.317C16.4415 43.3734 16.2184 43.0072 16.3344 42.6798C16.4647 42.3111 16.5841 41.9371 16.6925 41.5584L16.6969 41.5408C17.0608 40.2732 17.3573 38.8156 17.4659 37.4583C15.6651 35.2929 14.5747 32.4586 14.5747 29.3602C14.5747 22.5543 20.2365 17.0371 26.7204 17.0371Z" fill="#00726D"/>
</g>
</svg>
