<svg width="160" height="160" viewBox="0 0 160 160" fill="none" xmlns="http://www.w3.org/2000/svg">
<g filter="url(#filter0_d_470_1935)">
<g clip-path="url(#clip0_470_1935)">
<rect x="4" width="152" height="152" rx="24" fill="white"/>
<g filter="url(#filter1_d_470_1935)">
<path fill-rule="evenodd" clip-rule="evenodd" d="M36.6 22.8041C33.3333 28.3975 24.4667 77.1248 24.4667 78.7356L24 86.0427C24 87.7567 24.9333 95.5147 26.3333 99.2434C27.7333 102.972 32.8667 108.861 38 110.327C43.1333 111.793 48.2667 110.197 52.4667 108.099C56.6667 106.002 59.4667 102.999 59.9333 102.538C60.4 102.076 64.1333 97.3788 66 94.1162C67.8667 90.8535 68.8 87.1248 68.8 87.1248L66.9333 96.4469L66 101.108C66 101.108 65.0667 105.287 64.6 107.167C64.1333 109.047 63.9467 110.895 63.6667 112.294C63.3866 113.692 64.275 117.658 65.0667 118.819C65.8583 119.981 67.4 122.082 70.2 122.082C73 122.082 75.3333 120.684 76.2667 120.217C77.2 119.751 77.1181 119.949 79.7773 118.116C82.4364 116.283 85.0957 112.16 85.0957 112.16L86.2354 110.327L88.1347 106.661C88.1347 106.661 85.0957 126.743 85.0957 130.006C85.0957 133.269 92.1333 134.667 93.5333 130.006C94.9333 125.345 96.4922 99.7885 96.4922 99.7885C96.4922 99.7885 97.442 102.538 99.1514 105.287C100.861 108.036 103.71 109.411 105.229 109.869L105.318 109.896C106.824 110.35 108.744 110.931 113.587 109.869C118.525 108.786 119.285 108.311 121.564 106.661C123.639 105.16 125.714 102.595 126.356 101.802L126.442 101.695C126.466 101.666 126.486 101.641 126.503 101.621C126.883 101.163 128.782 98.4139 130.302 95.6648C131.821 92.9156 133.341 88.7918 134.101 86.0427C134.86 83.2935 135.62 76.8788 135.62 76.8788C136 73.6714 136 72.2969 136 69.5477C136 66.7985 135.403 63.722 134.86 61.7584C134.318 59.7948 132.581 54.4273 126.123 49.8453C126.123 49.8453 123.084 47.5544 117.386 48.0126C111.687 48.4708 107.509 52.1363 105.229 54.8855C104.537 55.7203 104.02 56.3863 103.615 56.9088L103.614 56.9097C102.684 58.107 102.339 58.551 101.811 58.551C101.051 58.551 102 54.0798 103.615 48.929C105.229 43.7781 96.4922 41.4476 94.9333 48.0126C93.3745 54.5775 91.2 79.6673 91.2 79.6673C91.1525 79.946 90.7333 83.8622 90.7333 83.8622C90.7333 83.8622 90.0341 87.8755 89.2744 90.1664C89.2326 90.2924 89.195 90.4106 89.1577 90.5276C88.937 91.2213 88.73 91.8717 87.7548 93.832C86.6152 96.123 84.7464 98.8721 83.7333 99.7885C82.7203 100.705 80.4667 103.438 78.1333 104.37C75.8 105.302 76.7382 102.538 76.7382 102.538C76.7382 102.538 90.414 29.3296 89.2744 24.2023C88.1347 19.0751 79.7773 18.609 76.7382 24.2023C73.6991 29.7957 69.7333 72.2102 69.2667 75.4729C68.8 78.7356 68.8 78.2695 68.3333 80.1338C67.8667 81.9982 66.4667 84.3287 66.4667 84.3287C66.4667 84.3287 64.7415 87.5913 63.2 88.9896C61.948 90.1254 58.741 92.457 57.1333 93.1842C55.5256 93.9114 52.4063 95.6648 49.2 95.6648C45.9937 95.6648 42.6667 93.832 42.6667 93.832C38.8678 91.0828 38 85.2605 38 83.8622C38 82.4639 38 78.9481 38.7499 75.046C39.4998 71.144 50.1333 28.397 49.2 23.2701C48.2667 18.1432 39.8667 17.2108 36.6 22.8041ZM126.883 84.6681C126.123 88.0282 123.464 93.832 121.564 96.1229C117.766 100.705 113.967 103.454 106.749 101.621L106.605 101.552C104.645 100.611 100.624 98.6802 98.7714 91.0828C96.872 83.2935 98.7714 71.8387 103.581 64.0494C106.126 60.204 110.04 58.073 111.687 57.1765C115.866 54.8855 120.425 56.7183 121.564 57.1765C122.704 57.6347 125.96 60.5809 127.263 64.5076C128.457 68.1079 128.417 73.2298 128.402 75.046C128.402 76.4206 127.643 81.308 126.883 84.6681Z" fill="url(#paint0_linear_470_1935)"/>
</g>
<rect x="4" width="152" height="152" rx="8" fill="url(#paint1_linear_470_1935)"/>
</g>
</g>
<defs>
<filter id="filter0_d_470_1935" x="0" y="0" width="160" height="160" filterUnits="userSpaceOnUse" color-interpolation-filters="sRGB">
<feFlood flood-opacity="0" result="BackgroundImageFix"/>
<feColorMatrix in="SourceAlpha" type="matrix" values="0 0 0 0 0 0 0 0 0 0 0 0 0 0 0 0 0 0 127 0" result="hardAlpha"/>
<feOffset dy="4"/>
<feGaussianBlur stdDeviation="2"/>
<feComposite in2="hardAlpha" operator="out"/>
<feColorMatrix type="matrix" values="0 0 0 0 0 0 0 0 0 0 0 0 0 0 0 0 0 0 0.2 0"/>
<feBlend mode="normal" in2="BackgroundImageFix" result="effect1_dropShadow_470_1935"/>
<feBlend mode="normal" in="SourceGraphic" in2="effect1_dropShadow_470_1935" result="shape"/>
</filter>
<filter id="filter1_d_470_1935" x="24" y="19" width="112.933" height="114.933" filterUnits="userSpaceOnUse" color-interpolation-filters="sRGB">
<feFlood flood-opacity="0" result="BackgroundImageFix"/>
<feColorMatrix in="SourceAlpha" type="matrix" values="0 0 0 0 0 0 0 0 0 0 0 0 0 0 0 0 0 0 127 0" result="hardAlpha"/>
<feOffset dx="0.933333" dy="0.933333"/>
<feComposite in2="hardAlpha" operator="out"/>
<feColorMatrix type="matrix" values="0 0 0 0 0 0 0 0 0 0.447059 0 0 0 0 0.427451 0 0 0 1 0"/>
<feBlend mode="normal" in2="BackgroundImageFix" result="effect1_dropShadow_470_1935"/>
<feBlend mode="normal" in="SourceGraphic" in2="effect1_dropShadow_470_1935" result="shape"/>
</filter>
<linearGradient id="paint0_linear_470_1935" x1="80" y1="19" x2="130.471" y2="102.489" gradientUnits="userSpaceOnUse">
<stop stop-color="#00E6DB"/>
<stop offset="0.179165" stop-color="#0AD1D6"/>
<stop offset="0.364583" stop-color="#07CACB"/>
<stop offset="0.55483" stop-color="#0CC6C3"/>
<stop offset="0.784522" stop-color="#05B0A9"/>
<stop offset="0.969134" stop-color="#01A8A1"/>
</linearGradient>
<linearGradient id="paint1_linear_470_1935" x1="4" y1="0" x2="156" y2="152" gradientUnits="userSpaceOnUse">
<stop stop-color="white" stop-opacity="0.1"/>
<stop offset="1" stop-color="white" stop-opacity="0"/>
</linearGradient>
<clipPath id="clip0_470_1935">
<rect x="4" width="152" height="152" rx="24" fill="white"/>
</clipPath>
</defs>
</svg>
