<svg width="49" height="41" viewBox="0 0 49 41" fill="none" xmlns="http://www.w3.org/2000/svg">
<g id="logout_icon">
<path id="Vector" fill-rule="evenodd" clip-rule="evenodd" d="M29.0929 5.00586C29.0929 4.56383 28.9396 4.13991 28.6668 3.82735C28.3941 3.51479 28.0241 3.3392 27.6383 3.3392L4.36559 3.3392C3.97982 3.3392 3.60985 3.51479 3.33707 3.82735C3.06429 4.13991 2.91104 4.56383 2.91104 5.00586L2.91104 35.0059C2.91104 35.4479 3.06429 35.8718 3.33707 36.1844C3.60985 36.4969 3.97982 36.6725 4.36559 36.6725L27.6383 36.6725C28.0241 36.6725 28.3941 36.4969 28.6668 36.1844C28.9396 35.8718 29.0929 35.4479 29.0929 35.0059L29.0929 28.3392C29.0929 27.8972 29.2461 27.4732 29.5189 27.1607C29.7917 26.8481 30.1616 26.6725 30.5474 26.6725C30.9332 26.6725 31.3031 26.8481 31.5759 27.1607C31.8487 27.4732 32.002 27.8972 32.002 28.3392V35.0059C32.002 36.3319 31.5422 37.6037 30.7239 38.5414C29.9055 39.4791 28.7956 40.0059 27.6383 40.0059L4.36559 40.0059C3.20828 40.0059 2.09837 39.4791 1.28003 38.5414C0.461693 37.6037 0.00195503 36.3319 0.00195503 35.0059L0.00195503 5.00586C0.00195503 3.67978 0.461693 2.40801 1.28003 1.47033C2.09837 0.532645 3.20828 0.00586176 4.36559 0.00586176L27.6383 0.00586176C28.7956 0.00586176 29.9055 0.532645 30.7239 1.47033C31.5422 2.40801 32.002 3.67978 32.002 5.00586V11.6725C32.002 12.1146 31.8487 12.5385 31.5759 12.851C31.3031 13.1636 30.9332 13.3392 30.5474 13.3392C30.1616 13.3392 29.7917 13.1636 29.5189 12.851C29.2461 12.5385 29.0929 12.1146 29.0929 11.6725V5.00586Z" fill="#00726D"/>
<path id="Vector_2" fill-rule="evenodd" clip-rule="evenodd" d="M47.6033 18.5873C47.7303 18.7731 47.831 18.9938 47.8998 19.2368C47.9685 19.4798 48.0039 19.7403 48.0039 20.0033C48.0039 20.2664 47.9685 20.5269 47.8998 20.7699C47.831 21.0128 47.7303 21.2335 47.6033 21.4193L39.4222 33.4193C39.2954 33.6053 39.1449 33.7528 38.9792 33.8534C38.8136 33.9541 38.6361 34.0059 38.4568 34.0059C38.2775 34.0059 38.1 33.9541 37.9343 33.8534C37.7687 33.7528 37.6182 33.6053 37.4914 33.4193C37.3646 33.2334 37.2641 33.0126 37.1955 32.7697C37.1269 32.5267 37.0915 32.2663 37.0915 32.0033C37.0915 31.7404 37.1269 31.48 37.1955 31.237C37.2641 30.994 37.3646 30.7733 37.4914 30.5873L43.3464 22.0033L19.3674 22.0033C19.0058 22.0033 18.659 21.7926 18.4033 21.4175C18.1476 21.0425 18.0039 20.5338 18.0039 20.0033C18.0039 19.4729 18.1476 18.9642 18.4033 18.5891C18.659 18.214 19.0058 18.0033 19.3674 18.0033L43.3464 18.0033L37.4914 9.41933C37.3646 9.23338 37.2641 9.01262 37.1955 8.76966C37.1269 8.52671 37.0915 8.26631 37.0915 8.00333C37.0915 7.74035 37.1269 7.47995 37.1955 7.237C37.2641 6.99404 37.3646 6.77328 37.4914 6.58733C37.6182 6.40138 37.7687 6.25387 37.9343 6.15324C38.1 6.0526 38.2775 6.0008 38.4568 6.0008C38.6361 6.0008 38.8136 6.0526 38.9792 6.15324C39.1449 6.25387 39.2954 6.40138 39.4222 6.58733L47.6033 18.5873Z" fill="#00726D"/>
</g>
</svg>
