<svg width="40" height="48" viewBox="0 0 40 48" fill="none" xmlns="http://www.w3.org/2000/svg">
<path id="notification_icon" d="M20 48C21.5155 48 22.969 47.3679 24.0406 46.2427C25.1122 45.1176 25.7143 43.5915 25.7143 42.0003H14.2857C14.2857 43.5915 14.8878 45.1176 15.9594 46.2427C17.031 47.3679 18.4845 48 20 48ZM20 5.75631L17.7229 6.23928C15.1399 6.79185 12.8181 8.26448 11.1504 10.4079C9.48278 12.5514 8.57171 15.2339 8.57143 18.0016C8.57143 19.8855 8.18857 24.5923 7.26 29.227C6.80286 31.5279 6.18571 33.9248 5.36571 36.0007H34.6343C33.8143 33.9248 33.2 31.5309 32.74 29.227C31.8114 24.5923 31.4286 19.8855 31.4286 18.0016C31.4276 15.2345 30.5163 12.5526 28.8487 10.4098C27.1811 8.26694 24.8596 6.79475 22.2771 6.24228L20 5.75631ZM37.7714 36.0007C38.4086 37.3416 39.1457 38.4035 40 39.0005H0C0.854286 38.4035 1.59143 37.3416 2.22857 36.0007C4.8 30.601 5.71429 20.6415 5.71429 18.0016C5.71429 10.742 10.6286 4.68237 17.1571 3.29944C17.1173 2.88233 17.1611 2.46107 17.2858 2.06283C17.4105 1.66459 17.6133 1.29822 17.8812 0.987345C18.1491 0.676467 18.476 0.427985 18.841 0.257924C19.2059 0.0878636 19.6007 0 20 0C20.3993 0 20.7941 0.0878636 21.1591 0.257924C21.524 0.427985 21.8509 0.676467 22.1188 0.987345C22.3867 1.29822 22.5895 1.66459 22.7142 2.06283C22.8389 2.46107 22.8827 2.88233 22.8429 3.29944C26.0722 3.98911 28.9754 5.82939 31.0607 8.50866C33.146 11.1879 34.2853 14.5416 34.2857 18.0016C34.2857 20.6415 35.2 30.601 37.7714 36.0007Z" fill="#00726D"/>
</svg>
