<svg width="44" height="48" viewBox="0 0 44 48" fill="none" xmlns="http://www.w3.org/2000/svg">
<path id="notification_mutted_icon" d="M13.064 39.155H40.4369C39.6048 38.5682 38.8868 37.5245 38.2662 36.2066C35.7616 30.8996 34.8711 21.1111 34.8711 18.5166C34.8711 17.7382 34.8154 16.9746 34.7041 16.2287L32.0937 18.9942C32.1494 21.0816 32.5306 25.3449 33.3655 29.5493C33.8135 31.8106 34.4147 34.1664 35.2106 36.2066H15.8469L13.064 39.155ZM28.5955 9.93689C27.087 8.4265 25.2088 7.3948 23.1744 6.95906L20.9564 6.47848L18.7384 6.95317C16.2221 7.49635 13.9602 8.94414 12.3358 11.0514C10.7114 13.1586 9.8243 15.7959 9.82467 18.5166C9.82467 20.3681 9.45176 24.9941 8.5473 29.5493C8.40816 30.251 8.2551 30.9615 8.08534 31.6662L3.48515 36.5398C3.54081 36.4307 3.59647 36.3216 3.64934 36.2066C6.14842 30.8996 7.04174 21.1111 7.04174 18.5166C7.04174 11.3816 11.8284 5.42592 18.1874 4.06674C18.1485 3.65678 18.1912 3.24275 18.3127 2.85135C18.4342 2.45995 18.6317 2.09987 18.8926 1.79433C19.1535 1.48878 19.472 1.24457 19.8275 1.07743C20.1829 0.910285 20.5675 0.82393 20.9564 0.82393C21.3453 0.82393 21.7299 0.910285 22.0853 1.07743C22.4408 1.24457 22.7593 1.48878 23.0202 1.79433C23.2811 2.09987 23.4786 2.45995 23.6001 2.85135C23.7216 3.24275 23.7643 3.65678 23.7254 4.06674C26.3469 4.62692 28.7013 5.96842 30.5631 7.85241L28.5955 9.93689ZM26.5223 42.1033C26.5223 43.6672 25.9359 45.1671 24.8921 46.2729C23.8483 47.3787 22.4326 48 20.9564 48C19.4802 48 18.0645 47.3787 17.0207 46.2729C15.9769 45.1671 15.3905 43.6672 15.3905 42.1033H26.5223ZM0.432273 43.946C0.155493 44.2393 -8.24868e-09 44.637 0 45.0517C8.24868e-09 45.4663 0.155493 45.8641 0.432273 46.1573C0.709053 46.4505 1.08445 46.6152 1.47587 46.6152C1.8673 46.6152 2.24269 46.4505 2.51947 46.1573L43.5677 2.66922C43.7048 2.52403 43.8135 2.35166 43.8877 2.16196C43.9618 1.97225 44 1.76893 44 1.56359C44 1.35826 43.9618 1.15494 43.8877 0.965233C43.8135 0.775529 43.7048 0.60316 43.5677 0.457966C43.4307 0.312773 43.268 0.1976 43.0889 0.119022C42.9099 0.0404436 42.7179 0 42.5241 0C42.3303 0 42.1384 0.0404436 41.9593 0.119022C41.7803 0.1976 41.6176 0.312773 41.4805 0.457966L0.432273 43.946Z" fill="#00726D"/>
</svg>
