<svg width="100" height="88" viewBox="0 0 100 88" fill="none" xmlns="http://www.w3.org/2000/svg">
<g id="student_apporve_icon">
<path id="Vector" d="M51.3158 0.291887C50.9027 0.0996215 50.4526 0 49.997 0C49.5414 0 49.0913 0.0996215 48.6783 0.291887L1.80327 22.1669C1.25128 22.4245 0.78663 22.8379 0.46646 23.3561C0.14629 23.8743 -0.01544 24.4748 0.00116108 25.0838C0.0177622 25.6927 0.21197 26.2835 0.559901 26.7835C0.907831 27.2835 1.39431 27.671 1.95952 27.8981L48.8345 46.6481C49.5807 46.9472 50.4134 46.9472 51.1595 46.6481L87.497 32.1231V68.7481C85.8394 68.7481 84.2497 69.4066 83.0776 70.5787C81.9055 71.7508 81.247 73.3405 81.247 74.9981V87.4981H99.997V74.9981C99.997 73.3405 99.3385 71.7508 98.1664 70.5787C96.9943 69.4066 95.4046 68.7481 93.747 68.7481V29.6169L98.0345 27.8981C98.5997 27.671 99.0862 27.2835 99.4341 26.7835C99.7821 26.2835 99.9763 25.6927 99.9929 25.0838C100.009 24.4748 99.8477 23.8743 99.5276 23.3561C99.2074 22.8379 98.7428 22.4245 98.1908 22.1669L51.3158 0.291887ZM49.997 40.3731L10.9845 24.7794L49.997 6.57314L89.0095 24.7794L49.997 40.3731Z" fill="#00726D"/>
<path id="Vector_2" d="M26.0971 43.9477C25.6947 43.7961 25.2653 43.7292 24.8359 43.7511C24.4064 43.7731 23.9861 43.8834 23.6013 44.0753C23.2164 44.2671 22.8753 44.5363 22.5993 44.866C22.3233 45.1957 22.1182 45.5789 21.9971 45.9914L18.8721 56.6164C18.6532 57.3623 18.7201 58.1631 19.0599 58.8622C19.3997 59.5614 19.9878 60.1089 20.7096 60.3977L48.8346 71.6477C49.5807 71.9467 50.4134 71.9467 51.1596 71.6477L79.2846 60.3977C80.0063 60.1089 80.5944 59.5614 80.9342 58.8622C81.274 58.1631 81.3409 57.3623 81.1221 56.6164L77.9971 45.9914C77.8759 45.5789 77.6709 45.1957 77.3948 44.866C77.1188 44.5363 76.7777 44.2671 76.3928 44.0753C76.008 43.8834 75.5877 43.7731 75.1583 43.7511C74.7288 43.7292 74.2995 43.7961 73.8971 43.9477L49.9971 52.9102L26.0971 43.9477ZM25.6721 55.6539L27.0471 50.9789L48.8971 59.1727C49.6061 59.4394 50.388 59.4394 51.0971 59.1727L72.9471 50.9789L74.3221 55.6539L49.9971 65.3727L25.6721 55.6539Z" fill="#00726D"/>
</g>
</svg>
