<svg width="84" height="84" viewBox="0 0 84 84" fill="none" xmlns="http://www.w3.org/2000/svg">
<g id="student_approve_icon">
<path id="Vector" d="M30.2986 17.6351C30.2986 19.5704 29.5717 21.4265 28.2777 22.795C26.9837 24.1635 25.2286 24.9323 23.3986 24.9323C21.5686 24.9323 19.8136 24.1635 18.5196 22.795C17.2256 21.4265 16.4986 19.5704 16.4986 17.6351C16.4986 15.6998 17.2256 13.8437 18.5196 12.4752C19.8136 11.1067 21.5686 10.3379 23.3986 10.3379C25.2286 10.3379 26.9837 11.1067 28.2777 12.4752C29.5717 13.8437 30.2986 15.6998 30.2986 17.6351ZM9.59863 38.4321C9.59863 41.351 12.3586 41.351 12.3586 41.351H34.4386C34.4386 41.351 37.1986 41.351 37.1986 38.4321C37.1986 35.5132 34.4386 26.7566 23.3986 26.7566C12.3586 26.7566 9.59863 35.5132 9.59863 38.4321Z" fill="#00726D"/>
<path id="Vector_2" d="M10.5 0C7.71523 0 5.04451 0.992077 3.07538 2.75799C1.10625 4.5239 0 6.91898 0 9.41636L0 47.0818C0 49.5791 1.10625 51.9742 3.07538 53.7401C5.04451 55.5061 7.71523 56.4981 10.5 56.4981H38.0257C38.6662 54.9633 39.5745 53.3531 40.7873 51.79H10.5C9.10761 51.79 7.77225 51.2939 6.78769 50.411C5.80312 49.528 5.25 48.3305 5.25 47.0818V9.41636C5.25 8.16767 5.80312 6.97013 6.78769 6.08717C7.77225 5.20422 9.10761 4.70818 10.5 4.70818H73.5C74.8924 4.70818 76.2277 5.20422 77.2123 6.08717C78.1969 6.97013 78.75 8.16767 78.75 9.41636V46.1872C80.6032 47.2701 82.194 48.5225 83.5275 49.8737C83.8372 48.9933 84 48.0564 84 47.0818V9.41636C84 6.91898 82.8938 4.5239 80.9246 2.75799C78.9555 0.992077 76.2848 0 73.5 0H10.5Z" fill="#00726D"/>
<path id="Vector_3" d="M47.8108 32.3409C47.3186 32.7823 47.042 33.3811 47.042 34.0055C47.042 34.6298 47.3186 35.2286 47.8108 35.67C48.3031 36.1115 48.9708 36.3595 49.667 36.3595H60.167C60.8632 36.3595 61.5309 36.1115 62.0231 35.67C62.5154 35.2286 62.792 34.6298 62.792 34.0055C62.792 33.3811 62.5154 32.7823 62.0231 32.3409C61.5309 31.8994 60.8632 31.6514 60.167 31.6514H49.667C48.9708 31.6514 48.3031 31.8994 47.8108 32.3409Z" fill="#00726D"/>
<path id="Vector_4" d="M47.8108 23.0938C47.3186 23.5353 47.042 24.134 47.042 24.7584C47.042 25.3827 47.3186 25.9815 47.8108 26.423C48.3031 26.8645 48.9708 27.1125 49.667 27.1125H70.667C71.3632 27.1125 72.0309 26.8645 72.5231 26.423C73.0154 25.9815 73.292 25.3827 73.292 24.7584C73.292 24.134 73.0154 23.5353 72.5231 23.0938C72.0309 22.6523 71.3632 22.4043 70.667 22.4043H49.667C48.9708 22.4043 48.3031 22.6523 47.8108 23.0938Z" fill="#00726D"/>
<path id="Vector_5" d="M47.8108 13.8838C47.3186 14.3253 47.042 14.9241 47.042 15.5484C47.042 16.1728 47.3186 16.7715 47.8108 17.213C48.3031 17.6545 48.9708 17.9025 49.667 17.9025H70.667C71.3632 17.9025 72.0309 17.6545 72.5231 17.213C73.0154 16.7715 73.292 16.1728 73.292 15.5484C73.292 14.9241 73.0154 14.3253 72.5231 13.8838C72.0309 13.4424 71.3632 13.1943 70.667 13.1943H49.667C48.9708 13.1943 48.3031 13.4424 47.8108 13.8838Z" fill="#00726D"/>
<path id="Vector_6" d="M84 65.1667C84 70.1614 81.7875 74.9516 77.8492 78.4834C73.911 82.0153 68.5695 83.9994 63 83.9994C57.4305 83.9994 52.089 82.0153 48.1508 78.4834C44.2125 74.9516 42 70.1614 42 65.1667C42 60.172 44.2125 55.3818 48.1508 51.85C52.089 48.3181 57.4305 46.334 63 46.334C68.5695 46.334 73.911 48.3181 77.8492 51.85C81.7875 55.3818 84 60.172 84 65.1667ZM63 55.7503C62.6682 55.7505 62.3402 55.813 62.0369 55.9338C61.7337 56.0546 61.4621 56.231 61.2395 56.4517C61.017 56.6723 60.8484 56.9323 60.7447 57.215C60.641 57.4976 60.6045 57.7966 60.6375 58.0927L61.5562 66.3485C61.5871 66.6728 61.7526 66.9749 62.0199 67.1951C62.2873 67.4152 62.637 67.5374 63 67.5374C63.363 67.5374 63.7127 67.4152 63.9801 67.1951C64.2474 66.9749 64.4129 66.6728 64.4438 66.3485L65.3625 58.0927C65.3955 57.7966 65.359 57.4976 65.2553 57.215C65.1516 56.9323 64.983 56.6723 64.7605 56.4517C64.5379 56.231 64.2663 56.0546 63.9631 55.9338C63.6598 55.813 63.3318 55.7505 63 55.7503ZM63.0052 69.8749C62.3091 69.8749 61.6414 70.1229 61.1491 70.5644C60.6568 71.0059 60.3802 71.6046 60.3802 72.229C60.3802 72.8533 60.6568 73.4521 61.1491 73.8936C61.6414 74.335 62.3091 74.5831 63.0052 74.5831C63.7014 74.5831 64.3691 74.335 64.8614 73.8936C65.3537 73.4521 65.6302 72.8533 65.6302 72.229C65.6302 71.6046 65.3537 71.0059 64.8614 70.5644C64.3691 70.1229 63.7014 69.8749 63.0052 69.8749Z" fill="#00726D"/>
</g>
</svg>
